<?xml version="1.0" encoding="utf-8"?>
<!-- Generator: Adobe Illustrator 25.2.1, SVG Export Plug-In . SVG Version: 6.00 Build 0)  -->
<svg version="1.1" id="Layer_1" xmlns="http://www.w3.org/2000/svg" xmlns:xlink="http://www.w3.org/1999/xlink" x="0px" y="0px"
	 viewBox="0 0 77.04 22.57" style="enable-background:new 0 0 77.04 22.57;" xml:space="preserve">
<style type="text/css">
	.st0{fill-rule:evenodd;clip-rule:evenodd;fill:#2D3748;}
	.st1{fill-rule:evenodd;clip-rule:evenodd;fill:url(#SVGID_1_);}
	.st2{fill-rule:evenodd;clip-rule:evenodd;fill:url(#SVGID_2_);}
</style>
<g>
	<path class="st0" d="M56.52,18.34c0.36-0.02,0.71,0.11,0.96,0.37c0.26,0.3,0.39,0.7,0.36,1.1v1.91h-0.96v-1.76
		c0.02-0.21-0.04-0.42-0.16-0.59c-0.11-0.13-0.28-0.21-0.45-0.19c-0.2-0.01-0.39,0.07-0.52,0.22c-0.14,0.19-0.21,0.42-0.19,0.65
		v1.67h-0.93v-1.76c0-0.52-0.21-0.78-0.61-0.78c-0.2-0.01-0.39,0.07-0.52,0.22c-0.14,0.19-0.21,0.42-0.19,0.65v1.67h-0.93v-3.32
		h0.89v0.37c0.12-0.14,0.27-0.25,0.44-0.32c0.18-0.07,0.38-0.11,0.57-0.11c0.21,0,0.42,0.04,0.62,0.14c0.18,0.09,0.34,0.23,0.45,0.4
		c0.13-0.17,0.3-0.31,0.5-0.4C56.05,18.37,56.28,18.33,56.52,18.34L56.52,18.34z M51.53,18.39v3.32h-0.89v-0.4
		c-0.12,0.14-0.27,0.26-0.45,0.33c-0.53,0.22-1.14,0.12-1.57-0.26c-0.26-0.31-0.38-0.7-0.36-1.1v-1.89h0.93v1.73
		c0,0.53,0.22,0.8,0.66,0.8c0.2,0.01,0.4-0.07,0.54-0.22c0.15-0.19,0.22-0.43,0.2-0.67v-1.64C50.61,18.39,51.53,18.39,51.53,18.39z
		 M46.94,17.93c-0.16,0.01-0.31-0.05-0.42-0.15c-0.1-0.1-0.16-0.24-0.16-0.38c0-0.15,0.06-0.28,0.16-0.38
		c0.11-0.11,0.27-0.16,0.42-0.15c0.15-0.01,0.3,0.05,0.42,0.15c0.11,0.09,0.17,0.23,0.16,0.37c0,0.15-0.05,0.29-0.16,0.4
		c-0.12,0.12-0.28,0.18-0.45,0.16H46.94z M46.47,18.39h0.94v3.32h-0.94C46.47,21.71,46.47,18.39,46.47,18.39z M44.33,18.34
		c0.36-0.02,0.71,0.12,0.96,0.37c0.26,0.3,0.39,0.7,0.36,1.1v1.91h-0.94v-1.76c0.02-0.21-0.04-0.42-0.16-0.59
		c-0.11-0.13-0.28-0.21-0.45-0.19c-0.2-0.01-0.39,0.07-0.52,0.22c-0.14,0.19-0.21,0.42-0.19,0.65v1.67h-0.94v-1.76
		c0-0.52-0.2-0.78-0.61-0.78c-0.19-0.01-0.38,0.07-0.51,0.22c-0.14,0.19-0.21,0.42-0.19,0.65v1.67H40.2v-3.32h0.9v0.37
		c0.12-0.14,0.27-0.25,0.44-0.32c0.18-0.07,0.37-0.11,0.57-0.11c0.21,0,0.43,0.05,0.62,0.14c0.18,0.09,0.33,0.23,0.44,0.4
		c0.12-0.16,0.28-0.29,0.46-0.38c0.21-0.1,0.43-0.15,0.66-0.15L44.33,18.34L44.33,18.34z M37.92,19.07
		c-0.2-0.01-0.39,0.06-0.53,0.19c-0.15,0.13-0.24,0.31-0.26,0.51h1.59C38.66,19.36,38.32,19.06,37.92,19.07L37.92,19.07z
		 M39.59,20.07v0.26h-2.52c0.04,0.2,0.15,0.37,0.31,0.49c0.18,0.13,0.4,0.19,0.61,0.18c0.15,0,0.3-0.02,0.45-0.08
		c0.13-0.06,0.26-0.14,0.36-0.25l0.5,0.56c-0.33,0.37-0.81,0.56-1.31,0.53c-0.34,0.01-0.67-0.07-0.97-0.22
		c-0.27-0.14-0.5-0.35-0.65-0.61c-0.3-0.55-0.3-1.21,0-1.76c0.15-0.26,0.36-0.47,0.62-0.61c0.54-0.29,1.19-0.29,1.74,0
		c0.25,0.14,0.46,0.35,0.6,0.6c0.14,0.28,0.21,0.59,0.2,0.9L39.59,20.07L39.59,20.07z M34.68,18.83c0.11-0.16,0.27-0.29,0.45-0.37
		c0.21-0.09,0.43-0.13,0.66-0.13v0.88h-0.21c-0.23-0.01-0.46,0.07-0.63,0.23c-0.17,0.19-0.25,0.44-0.23,0.69v1.56h-0.94v-3.32h0.89
		C34.68,18.39,34.68,18.83,34.68,18.83z M31.21,19.71c0.24,0.02,0.47-0.05,0.67-0.2c0.16-0.14,0.24-0.34,0.23-0.55
		c0.01-0.21-0.07-0.42-0.23-0.56c-0.19-0.14-0.43-0.21-0.67-0.19h-0.78v1.5H31.21z M31.27,17.39c0.33-0.01,0.66,0.06,0.97,0.19
		c0.26,0.11,0.48,0.3,0.63,0.54c0.3,0.51,0.3,1.15,0,1.66c-0.15,0.24-0.37,0.42-0.63,0.53c-0.31,0.13-0.64,0.19-0.97,0.19h-0.84v1.2
		h-0.97v-4.32L31.27,17.39L31.27,17.39z M70.74,8.34c0.45-0.68,1.25-1.03,2.39-1.03v1.46c-0.64-0.12-1.31,0.06-1.81,0.48
		c-0.37,0.41-0.55,0.95-0.51,1.5v3.17h-1.57V7.39h1.49L70.74,8.34L70.74,8.34z M64.73,8.54c-0.46-0.01-0.92,0.14-1.28,0.43
		c-0.35,0.29-0.58,0.71-0.64,1.16h3.81c-0.05-0.45-0.27-0.86-0.62-1.15C65.66,8.68,65.2,8.53,64.73,8.54z M68.13,10.7
		c0,0.11,0,0.26-0.03,0.45h-5.27c0.08,0.46,0.34,0.87,0.72,1.15c0.42,0.29,0.93,0.44,1.45,0.42c0.68,0.02,1.33-0.24,1.81-0.72
		l0.84,0.94c-0.31,0.35-0.7,0.63-1.14,0.79c-1.15,0.41-2.41,0.35-3.51-0.16c-0.54-0.27-0.99-0.68-1.3-1.2
		c-0.31-0.52-0.47-1.12-0.46-1.73c0-0.6,0.17-1.19,0.47-1.71c0.29-0.51,0.72-0.92,1.24-1.2c0.55-0.29,1.17-0.44,1.79-0.43
		c0.61-0.01,1.22,0.14,1.76,0.42c0.51,0.27,0.92,0.68,1.2,1.19C68,9.47,68.14,10.08,68.13,10.7L68.13,10.7z M57.13,12.7
		c0.53,0.02,1.05-0.19,1.43-0.56c0.38-0.4,0.58-0.93,0.56-1.48c0.02-0.55-0.18-1.09-0.56-1.48c-0.38-0.38-0.89-0.58-1.43-0.56
		c-0.36,0-0.71,0.08-1.02,0.25c-0.3,0.17-0.55,0.42-0.72,0.72c-0.35,0.68-0.35,1.48,0,2.16c0.17,0.3,0.42,0.55,0.72,0.72
		C56.42,12.62,56.77,12.71,57.13,12.7z M57.3,7.32c0.61-0.01,1.21,0.13,1.76,0.42c0.51,0.27,0.93,0.68,1.21,1.17
		c0.3,0.54,0.45,1.14,0.44,1.75c0.01,0.61-0.14,1.22-0.44,1.76c-0.28,0.5-0.71,0.91-1.22,1.18c-0.54,0.29-1.14,0.43-1.76,0.42
		c-0.81,0.04-1.6-0.28-2.15-0.88v3.17h-1.57V7.39h1.49v0.85c0.26-0.31,0.59-0.55,0.96-0.7C56.44,7.39,56.87,7.31,57.3,7.32
		L57.3,7.32z M48.88,12.7c0.54,0.02,1.07-0.18,1.45-0.56c0.38-0.39,0.59-0.93,0.56-1.48c0.02-0.55-0.18-1.09-0.56-1.48
		c-0.81-0.75-2.06-0.75-2.86,0c-0.39,0.39-0.6,0.93-0.59,1.48c-0.02,0.55,0.18,1.08,0.56,1.48C47.82,12.52,48.34,12.73,48.88,12.7z
		 M48.88,14.01c-0.64,0.01-1.27-0.14-1.84-0.43c-0.53-0.27-0.97-0.69-1.27-1.2c-0.31-0.52-0.47-1.12-0.46-1.73
		c-0.01-0.61,0.15-1.21,0.46-1.73c0.31-0.51,0.75-0.92,1.27-1.19c1.16-0.57,2.52-0.57,3.69,0c0.53,0.27,0.97,0.68,1.27,1.19
		c0.31,0.52,0.47,1.12,0.46,1.73c0.01,0.61-0.15,1.21-0.46,1.73c-0.3,0.51-0.75,0.92-1.27,1.2C50.16,13.88,49.53,14.02,48.88,14.01z
		 M41.39,7.32c0.75-0.04,1.48,0.22,2.04,0.72c0.51,0.48,0.77,1.2,0.77,2.15v3.74h-1.57v-3.55c0.04-0.47-0.11-0.93-0.42-1.29
		c-0.31-0.31-0.74-0.46-1.18-0.43c-0.51-0.03-1.01,0.15-1.38,0.51c-0.36,0.4-0.54,0.93-0.5,1.47v3.3h-1.57V4.84h1.57v3.31
		c0.27-0.28,0.6-0.49,0.96-0.62C40.51,7.38,40.95,7.31,41.39,7.32L41.39,7.32z M32.95,14.06c-0.67,0-1.34-0.1-1.98-0.29
		c-0.55-0.14-1.06-0.4-1.51-0.75l0.57-1.24c0.4,0.3,0.85,0.53,1.32,0.68c0.51,0.17,1.04,0.26,1.58,0.26c0.5,0.03,1-0.07,1.45-0.31
		c0.3-0.16,0.48-0.47,0.48-0.81c0.01-0.23-0.09-0.46-0.27-0.61c-0.2-0.17-0.43-0.29-0.68-0.36c-0.27-0.09-0.66-0.19-1.13-0.31
		c-0.55-0.12-1.1-0.28-1.63-0.47c-0.42-0.15-0.79-0.39-1.09-0.72c-0.31-0.37-0.47-0.85-0.45-1.34c0.01-0.47,0.16-0.92,0.44-1.3
		c0.3-0.42,0.72-0.74,1.19-0.92c0.62-0.25,1.29-0.37,1.95-0.36c0.53,0,1.07,0.07,1.58,0.2c0.48,0.11,0.93,0.3,1.35,0.56l-0.51,1.24
		c-0.38-0.22-0.79-0.39-1.21-0.5c-0.4-0.11-0.81-0.17-1.22-0.17c-0.5-0.04-1.01,0.07-1.45,0.32c-0.3,0.18-0.48,0.5-0.47,0.85
		c0,0.23,0.1,0.44,0.28,0.59c0.2,0.16,0.44,0.29,0.69,0.36c0.28,0.09,0.66,0.19,1.13,0.31c0.55,0.12,1.08,0.27,1.61,0.46
		c0.41,0.15,0.79,0.4,1.09,0.72c0.31,0.37,0.47,0.84,0.45,1.32c0,0.46-0.13,0.91-0.39,1.29c-0.3,0.42-0.73,0.75-1.21,0.94
		C34.28,13.95,33.62,14.07,32.95,14.06L32.95,14.06z M75.13,5.37h0.15c0.16,0,0.25-0.06,0.25-0.19c0-0.05-0.02-0.1-0.05-0.13
		C75.42,5.01,75.36,4.99,75.29,5h-0.16V5.37L75.13,5.37z M74.89,5.93V4.81h0.45c0.11,0,0.22,0.03,0.32,0.08
		c0.09,0.06,0.15,0.17,0.13,0.28c0,0.07-0.02,0.13-0.06,0.19c-0.04,0.05-0.09,0.1-0.16,0.12l0.27,0.46h-0.27l-0.2-0.39h-0.24v0.37
		C75.14,5.92,74.89,5.93,74.89,5.93z M75.31,6.27c0.12,0,0.23-0.02,0.34-0.06c0.1-0.04,0.2-0.1,0.27-0.18
		c0.08-0.08,0.14-0.17,0.19-0.28c0.04-0.12,0.07-0.24,0.06-0.36c0-0.12-0.02-0.23-0.06-0.34c-0.04-0.1-0.11-0.2-0.19-0.28
		c-0.08-0.08-0.17-0.15-0.27-0.19c-0.22-0.09-0.47-0.09-0.69,0c-0.1,0.04-0.19,0.11-0.27,0.19c-0.16,0.17-0.25,0.39-0.25,0.62
		c-0.01,0.24,0.08,0.47,0.25,0.64c0.08,0.08,0.17,0.14,0.27,0.18c0.11,0.04,0.23,0.06,0.34,0.05C75.31,6.26,75.31,6.27,75.31,6.27z
		 M75.31,6.48c-0.14,0-0.29-0.03-0.42-0.08c-0.26-0.1-0.47-0.31-0.58-0.57c-0.12-0.28-0.12-0.6,0-0.88
		c0.05-0.13,0.13-0.25,0.23-0.34c0.2-0.2,0.48-0.31,0.76-0.31c0.15,0,0.29,0.03,0.43,0.08c0.26,0.1,0.47,0.31,0.58,0.57
		c0.12,0.28,0.12,0.6,0,0.88c-0.05,0.13-0.13,0.24-0.23,0.34c-0.1,0.1-0.22,0.17-0.34,0.22C75.6,6.45,75.46,6.48,75.31,6.48
		L75.31,6.48z"/>
	
		<radialGradient id="SVGID_1_" cx="1.1388" cy="40.7224" r="0.4391" gradientTransform="matrix(26.0074 0 0 -26.0073 -13.9793 1078.6813)" gradientUnits="userSpaceOnUse">
		<stop  offset="0" style="stop-color:#ABB4CD"/>
		<stop  offset="1" style="stop-color:#2D3748"/>
	</radialGradient>
	<path class="st1" d="M23.02,7.43c-0.68-0.4-1.56-0.17-1.96,0.51c0,0.01-0.01,0.01-0.01,0.02l-6.11,10.59H2.62
		c-0.8,0-1.44,0.65-1.45,1.44c0,0,0,0,0,0c0,0.8,0.65,1.44,1.45,1.44c0,0,0,0,0,0h13.04c0.07,0,0.15-0.01,0.22-0.02h0.09
		c0.44-0.06,0.84-0.32,1.06-0.72L23.55,9.4c0.4-0.68,0.17-1.56-0.5-1.96C23.03,7.44,23.03,7.44,23.02,7.43z"/>
	
		<radialGradient id="SVGID_2_" cx="1.4463" cy="40.9924" r="0.8176" gradientTransform="matrix(17.2317 0 0 -17.2324 -15.2259 721.0204)" gradientUnits="userSpaceOnUse">
		<stop  offset="0" style="stop-color:#2D3748"/>
		<stop  offset="0.14" style="stop-color:#353F50"/>
		<stop  offset="0.35" style="stop-color:#4B5467"/>
		<stop  offset="0.62" style="stop-color:#6E778C"/>
		<stop  offset="0.93" style="stop-color:#9EA7C0"/>
		<stop  offset="1" style="stop-color:#ABB4CD"/>
	</radialGradient>
	<path class="st2" d="M10.24,7.87L6.9,2.09C6.51,1.4,5.62,1.16,4.93,1.56C4.24,1.95,4,2.83,4.39,3.52c0,0,0,0,0,0l2.96,5.12
		L1.26,19.21c-0.26,0.45-0.25,1,0.01,1.44c0.4,0.69,1.29,0.92,1.98,0.52c0.22-0.13,0.4-0.31,0.53-0.53l6.52-11.26
		C10.56,8.91,10.54,8.32,10.24,7.87z"/>
</g>
</svg>
