<?xml version="1.0" encoding="utf-8"?>
<!-- Generator: Adobe Illustrator 25.2.1, SVG Export Plug-In . SVG Version: 6.00 Build 0)  -->
<svg version="1.1" id="Layer_1" xmlns="http://www.w3.org/2000/svg" xmlns:xlink="http://www.w3.org/1999/xlink" x="0px" y="0px"
	 viewBox="0 0 77.04 30.36" style="enable-background:new 0 0 77.04 30.36;" xml:space="preserve">
<style type="text/css">
	.st0{fill:#F16A36;}
</style>
<path class="st0" d="M11.49,13.01H9.55V0.13h2.78l1.81,9.24l1.73-9.24h2.68v12.87h-1.94V4.92l-1.68,8.09h-1.57l-1.88-8.06V13.01z
	 M23.69,3.09l-0.72,5.07h1.44L23.69,3.09z M22.67,10.05l-0.47,2.96h-2.02l2.19-12.86h2.66l2.15,12.86h-2.04l-0.45-2.96H22.67z
	 M33.04,3.24c0-0.75-0.37-1.12-1.12-1.12h-1.17v4.12h1.17c0.31,0,0.58-0.11,0.79-0.33c0.22-0.22,0.32-0.48,0.32-0.79V3.24z
	 M31.87,0.15c1.08,0,1.87,0.3,2.38,0.89c0.44,0.52,0.67,1.25,0.67,2.18v1.86c0,0.91-0.35,1.68-1.04,2.31l1.44,5.62h-2.1l-1.18-4.84
	c-0.06,0-0.11,0-0.18,0h-1.12v4.84h-1.94V0.15H31.87z M38.93,8.94v4.07h-1.95V0.13h1.95v4.59l2.36-4.59h2.07L40.71,5.4l3.11,7.61
	h-2.28L39.51,7.8L38.93,8.94z M52.2,2.09h-2.06V2.07h-3.35v3.52h2.62v1.95h-2.62v3.52h3.59v1.94h-5.52V0.13h5.52v0.01h5.82v1.94
	h-2.05v10.92H52.2V2.09z M59.32,13.01h-1.94V0.15h1.94V13.01z M63.79,0.13l2.57,8.64V0.13h1.94v12.87h-2.08l-2.67-8.24v8.24h-1.94
	V0.13H63.79z M73.36,13.17c-0.85,0-1.58-0.3-2.18-0.9c-0.6-0.6-0.89-1.33-0.89-2.17V3.08c0-0.85,0.29-1.58,0.9-2.18
	c0.6-0.6,1.32-0.9,2.17-0.9c0.86,0,1.58,0.3,2.17,0.91c0.6,0.6,0.9,1.33,0.9,2.17v1.47h-2.01V3.04c0-0.3-0.1-0.57-0.33-0.79
	c-0.22-0.22-0.49-0.33-0.79-0.33c-0.31,0-0.57,0.11-0.78,0.33c-0.21,0.22-0.33,0.49-0.33,0.79v7.04c0,0.31,0.11,0.57,0.33,0.78
	c0.21,0.22,0.48,0.32,0.78,0.32c0.3,0,0.57-0.11,0.79-0.32c0.22-0.21,0.33-0.47,0.33-0.78V7.54h-1.08V5.61h3.09v4.49
	c0,0.86-0.3,1.58-0.9,2.18C74.92,12.87,74.2,13.17,73.36,13.17z M16.33,29.36h-2.08l-1.49-4.09l-1.5,4.09H9.19l2.52-6.47L9.19,16.5
	h2.15l1.43,3.97l1.43-3.97h2.14l-2.52,6.39L16.33,29.36z M21.8,19.6c0-0.34-0.1-0.61-0.3-0.81c-0.2-0.2-0.47-0.31-0.81-0.31h-1.17
	v4.12h1.17c0.31,0,0.57-0.11,0.79-0.33c0.22-0.22,0.32-0.49,0.32-0.8V19.6z M20.64,16.5c0.95,0,1.7,0.3,2.26,0.89
	c0.52,0.57,0.78,1.29,0.78,2.18v1.87c0,0.85-0.3,1.57-0.89,2.17c-0.6,0.61-1.31,0.91-2.15,0.91h-1.12v4.84h-1.94V16.5H20.64z
	 M24.86,29.36V16.49h5.52v1.94H26.8v3.52h2.62v1.95H26.8v3.52h3.58v1.94H24.86z M35.93,19.6c0-0.75-0.37-1.12-1.11-1.12h-1.17v4.12
	h1.17c0.31,0,0.57-0.11,0.79-0.33c0.21-0.22,0.33-0.49,0.33-0.8V19.6z M34.77,16.5c1.09,0,1.88,0.3,2.39,0.89
	c0.45,0.52,0.66,1.25,0.66,2.18v1.87c0,0.9-0.35,1.68-1.04,2.31l1.44,5.62h-2.1l-1.17-4.84c-0.05,0-0.11,0-0.18,0h-1.12v4.84h-1.94
	V16.5H34.77z M40.67,18.44H38.6V16.5h6.05v1.93H42.6v10.92h-1.94V18.44z M51.49,26.16c0.01,0.9-0.22,1.67-0.7,2.3
	c-0.31,0.43-0.76,0.73-1.34,0.91c-0.3,0.09-0.66,0.14-1.08,0.14c-0.76,0-1.39-0.19-1.89-0.56c-0.41-0.31-0.74-0.73-0.99-1.26
	c-0.24-0.53-0.38-1.14-0.43-1.83l1.85-0.13c0.08,0.74,0.28,1.29,0.59,1.62c0.23,0.25,0.5,0.38,0.8,0.36
	c0.42-0.01,0.77-0.22,1.01-0.63c0.13-0.2,0.2-0.48,0.2-0.85c0-0.53-0.24-1.06-0.73-1.59c-0.39-0.37-0.96-0.91-1.72-1.64
	c-0.64-0.62-1.1-1.18-1.37-1.67c-0.29-0.55-0.43-1.16-0.43-1.81c0-1.17,0.39-2.06,1.18-2.66c0.48-0.37,1.09-0.55,1.8-0.55
	c0.69,0,1.29,0.15,1.78,0.46c0.38,0.24,0.69,0.58,0.92,1.01c0.23,0.43,0.38,0.93,0.43,1.49l-1.85,0.33
	c-0.06-0.52-0.21-0.94-0.45-1.23c-0.18-0.21-0.43-0.32-0.77-0.32c-0.35,0-0.63,0.15-0.81,0.47c-0.15,0.26-0.23,0.57-0.23,0.94
	c0,0.59,0.25,1.19,0.76,1.8c0.19,0.23,0.48,0.51,0.86,0.82c0.46,0.37,0.75,0.64,0.9,0.79c0.48,0.47,0.85,0.95,1.11,1.41
	c0.12,0.22,0.22,0.42,0.3,0.61C51.38,25.38,51.47,25.8,51.49,26.16z M53.06,17.33v-0.35h0.06c0.09,0,0.12,0.04,0.12,0.18
	c0,0.05-0.01,0.1-0.02,0.13c-0.02,0.03-0.04,0.05-0.1,0.05H53.06z M53.06,17.52h0.07l0.12,0.51h0.21l-0.14-0.57
	c0.08-0.06,0.12-0.15,0.12-0.31c0-0.26-0.1-0.37-0.32-0.37h-0.27v1.25h0.2V17.52z M53.14,16.5c0.51,0,0.9,0.4,0.9,0.91
	c0,0.51-0.4,0.91-0.9,0.91c-0.5,0-0.9-0.41-0.9-0.91C52.25,16.91,52.65,16.5,53.14,16.5z M53.16,16.34c-0.61,0-1.09,0.48-1.09,1.08
	c0,0.59,0.49,1.07,1.08,1.07c0.59,0,1.07-0.48,1.07-1.07C54.22,16.83,53.74,16.34,53.16,16.34z M2.7,21.95H0.08v1.95H2.7v5.46h5.52
	v-1.94H4.63V23.9h2.62v-1.95H4.63v-3.52h3.59v-1.94H2.7V21.95z M2.7,13.01V7.54H0.08V5.59H2.7V0.13h5.52v1.94H4.63v3.52h2.62v1.95
	H4.63v3.52h3.59v1.94H2.7z"/>
</svg>
